<svg xmlns="http://www.w3.org/2000/svg" viewBox="-2640 7633 20.703 18.068"><defs><style>.a{fill:#5b5691;}</style></defs><g transform="translate(-2640 7633)"><path class="a" d="M15.01,8.1a4.05,4.05,0,1,0-4.05-4.05A4.042,4.042,0,0,0,15.01,8.1Zm0,1.869c-6.23,0-8.162,6.168-8.162,6.168a1.373,1.373,0,0,0,1.308,1.931H21.863a1.4,1.4,0,0,0,1.308-1.931S21.24,9.969,15.01,9.969Z" transform="translate(-2.549)"/><path class="a" d="M6.23,11.115a.758.758,0,0,1-.748.748H3.863V13.42a.773.773,0,0,1-.748.81.758.758,0,0,1-.748-.748V11.925H.748A.816.816,0,0,1,0,11.115a.758.758,0,0,1,.748-.748H2.305V8.81A.871.871,0,0,1,3.115,8a.758.758,0,0,1,.748.748v1.558H5.42A.871.871,0,0,1,6.23,11.115Z" transform="translate(0 -3.016)"/></g></svg>