<svg xmlns="http://www.w3.org/2000/svg" viewBox="258 10278 20 17.619"><defs><style>.a{fill:#414141;}</style></defs><g transform="translate(227 10002)"><path class="a" d="M14.545,9.612c0,.381-.433.687-.97.687H.97C.433,10.3,0,9.992,0,9.612V.687C0,.306.433,0,.97,0h12.6c.537,0,.97.306.97.687V9.612Z" transform="translate(31 282.41)"/><ellipse class="a" cx="2.425" cy="2.425" rx="2.425" ry="2.425" transform="translate(32.209 277.209)"/><ellipse class="a" cx="3.03" cy="3.03" rx="3.03" ry="3.03" transform="translate(38.276 276)"/><path class="a" d="M4.851,11.515a.685.685,0,0,1-.649.6c-.567,0-4.2-3.4-4.2-3.836V3.836C0,3.388,3.552,0,4.2,0a.607.607,0,0,1,.649.6Z" transform="translate(46.149 281.5)"/></g></svg>