<svg xmlns="http://www.w3.org/2000/svg" viewBox="802.99 10770 50 37"><defs><style>.a{fill:#fff;opacity:0.85;}</style></defs><path class="a" d="M-1641.774-1272a3.221,3.221,0,0,1-3.227-3.217v-23.332a3.221,3.221,0,0,1,3.227-3.216h8.628l4.113-5.966a3.567,3.567,0,0,1,2.6-1.27h12.9a3.569,3.569,0,0,1,2.614,1.27l4.1,5.966h8.628a3.22,3.22,0,0,1,3.194,3.216v23.332a3.221,3.221,0,0,1-3.226,3.217Zm10.5-15.292a11.273,11.273,0,0,0,11.29,11.255,11.273,11.273,0,0,0,11.291-11.255,11.273,11.273,0,0,0-11.291-11.256A11.273,11.273,0,0,0-1631.274-1287.292Zm23.387-10.453a1.61,1.61,0,0,0,1.613,1.608,1.61,1.61,0,0,0,1.613-1.608,1.61,1.61,0,0,0-1.613-1.607A1.61,1.61,0,0,0-1607.887-1297.744Zm-20.984,10.453a8.874,8.874,0,0,1,8.887-8.86,8.873,8.873,0,0,1,8.887,8.86,8.873,8.873,0,0,1-8.887,8.86A8.874,8.874,0,0,1-1628.871-1287.292Zm-12.887-16.9v-1.608a1.611,1.611,0,0,1,1.614-1.608h3.226a1.61,1.61,0,0,1,1.613,1.608v1.608Z" transform="translate(2447.99 12079)"/></svg>