<svg xmlns="http://www.w3.org/2000/svg" viewBox="-5870 12479 50 50"><defs><style>.a{fill:#aaaab3;}</style></defs><path class="a" d="M25,0A25,25,0,1,0,50,25,25.073,25.073,0,0,0,25,0Zm0,45A20,20,0,1,1,45,25,20.059,20.059,0,0,1,25,45ZM35,25a2.362,2.362,0,0,1-2.5,2.5h-5v5A2.362,2.362,0,0,1,25,35a2.362,2.362,0,0,1-2.5-2.5v-5h-5A2.362,2.362,0,0,1,15,25a2.362,2.362,0,0,1,2.5-2.5h5v-5A2.362,2.362,0,0,1,25,15a2.362,2.362,0,0,1,2.5,2.5v5h5A2.362,2.362,0,0,1,35,25Z" transform="translate(-5870 12479)"/></svg>