<svg xmlns="http://www.w3.org/2000/svg" viewBox="8012 11770 50 50"><defs><style>.a{fill:#aaaab3;}</style></defs><path class="a" d="M1754-5717a25.073,25.073,0,0,1,25-25,25.072,25.072,0,0,1,25,25,25.073,25.073,0,0,1-25,25A25.073,25.073,0,0,1,1754-5717Zm5.359,0A19.584,19.584,0,0,0,1779-5697.359,19.585,19.585,0,0,0,1798.642-5717,19.585,19.585,0,0,0,1779-5736.642,19.585,19.585,0,0,0,1759.358-5717Zm15.533,1.787h-10.178a1.686,1.686,0,0,1-1.783-1.787,1.685,1.685,0,0,1,1.783-1.787h10.178a4.883,4.883,0,0,1,2.322-2.322v-11.964a1.687,1.687,0,0,1,1.786-1.784,1.687,1.687,0,0,1,1.786,1.784v11.964a4.513,4.513,0,0,1,2.679,4.108,4.422,4.422,0,0,1-4.465,4.464A4.513,4.513,0,0,1,1774.892-5715.213Z" transform="translate(6258 17512)"/></svg>