<svg xmlns="http://www.w3.org/2000/svg" viewBox="604.905 12591.178 24.14 19.036"><defs><style>.a,.c{fill:none;stroke:#c6c6c6;stroke-width:2px;}.a{fill-rule:evenodd;}.b{opacity:0;}</style></defs><g transform="translate(446 12299.189)"><path class="a" d="M17.838,30.1c0-4.147,4.2-7.508,9.385-7.508s9.385,3.361,9.385,7.508-4.2,7.508-9.385,7.508a11.617,11.617,0,0,1-2.465-.262l-.028.044c-.574.909-3.916,1.945-3.916,1.945-.434.148-.561-.03-.28-.391,0,0,1.284-1.577,1.284-2.076s-.065-.569-.28-.793A7.116,7.116,0,0,1,17.838,30.1Z" transform="translate(143.372 270.625)"/><g class="b" transform="translate(159.474 292.811)"><path class="c" d="M0,0,9.19,6.37l2.31,1.6L23,15.943" transform="translate(0 0)"/><path class="c" d="M23,0,11.141,8.221,0,15.943" transform="translate(0 0)"/></g></g></svg>