<svg xmlns="http://www.w3.org/2000/svg" viewBox="4044.033 14148.093 408.393 251.934"><defs><style>.a,.c,.e{fill:none;}.a{stroke:#a2a2ad;}.a,.b,.c{stroke-width:3px;}.b{fill:#0e580b;}.b,.c{stroke:#367400;}.d{stroke:none;}</style></defs><g transform="translate(2969 13978)"><g class="a" transform="translate(1075.033 282.2)"><rect class="d" width="16.631" height="27.054"/><rect class="e" x="1.5" y="1.5" width="13.631" height="24.054"/></g><g class="a" transform="translate(1466.794 282.2)"><rect class="d" width="16.631" height="27.054"/><rect class="e" x="1.5" y="1.5" width="13.631" height="24.054"/></g><g class="b" transform="translate(1084.888 170.092)"><rect class="d" width="388.065" height="251.319"/><rect class="e" x="1.5" y="1.5" width="385.065" height="248.319"/></g><path class="b" d="M40.783,14.783A14.741,14.741,0,0,0,26,0V14.783Z" transform="translate(1061.968 403.316)"/><path class="b" d="M14.783,14.783A14.741,14.741,0,0,0,0,0V14.783Z" transform="translate(1102.752 173.172) rotate(90)"/><path class="b" d="M14.783,14.783A14.741,14.741,0,0,0,0,0V14.783Z" transform="translate(1469.874 187.956) rotate(180)"/><path class="b" d="M14.783,14.783A14.741,14.741,0,0,0,0,0V14.783Z" transform="translate(1455.09 418.099) rotate(-90)"/><path class="b" d="M0,0A30.121,30.121,0,0,1,30.121,30.121,30.121,30.121,0,0,1,0,60.243Z" transform="translate(1129.036 265.569)"/><g class="b" transform="translate(1245.042 262.489)"><circle class="d" cx="33.817" cy="33.817" r="33.817"/><circle class="e" cx="33.817" cy="33.817" r="32.317"/></g><path class="b" d="M0,0A30.121,30.121,0,0,1,30.121,30.121,30.121,30.121,0,0,1,0,60.243Z" transform="translate(1429.158 325.812) rotate(180)"/><line class="c" y2="251.319" transform="translate(1278.921 170.708)"/><g class="b" transform="translate(1084.888 221.834)"><rect class="d" width="60.982" height="149.017"/><rect class="e" x="1.5" y="1.5" width="57.982" height="146.017"/></g><g class="b" transform="translate(1472.83 370.852) rotate(180)"><rect class="d" width="60.982" height="149.017"/><rect class="e" x="1.5" y="1.5" width="57.982" height="146.017"/></g><g class="b" transform="translate(1084.888 262.49)"><rect class="d" width="20.327" height="67.708"/><rect class="e" x="1.5" y="1.5" width="17.327" height="64.708"/></g><g class="b" transform="translate(1472.83 330.196) rotate(180)"><rect class="d" width="20.327" height="67.708"/><rect class="e" x="1.5" y="1.5" width="17.327" height="64.708"/></g></g></svg>