<svg xmlns="http://www.w3.org/2000/svg" viewBox="3689 13849 211.027 137"><defs><style>.a{opacity:0.658;}.b,.d{fill:none;}.b{stroke:#fff;stroke-width:2px;}.c{stroke:none;}</style></defs><g class="a" transform="translate(3411.182 13137)"><g class="b" transform="translate(277.818 712)"><rect class="c" width="211.027" height="136.665"/><rect class="d" x="1" y="1" width="209.027" height="134.665"/></g><path class="b" d="M34.039,8.039A8.016,8.016,0,0,0,26,0V8.039Z" transform="translate(253.492 838.281)"/><path class="b" d="M8.039,8.039A8.016,8.016,0,0,0,0,0V8.039Z" transform="translate(287.532 713.675) rotate(90)"/><path class="b" d="M8.039,8.039A8.016,8.016,0,0,0,0,0V8.039Z" transform="translate(487.17 721.714) rotate(180)"/><path class="b" d="M8.039,8.039A8.016,8.016,0,0,0,0,0V8.039Z" transform="translate(479.131 846.32) rotate(-90)"/><g class="b" transform="translate(364.908 762.245)"><circle class="c" cx="18.389" cy="18.389" r="18.389"/><circle class="d" cx="18.389" cy="18.389" r="17.389"/></g><path class="b" d="M36.215,5.524A16.171,16.171,0,0,1,43.83,19.38a16.549,16.549,0,0,1-7.435,13.706C36.286,33.165,35.815,5.286,36.215,5.524Z" transform="translate(274.117 760.919)"/><path class="b" d="M8.633,2.441A16.172,16.172,0,0,1,16.379,16.38,16.484,16.484,0,0,1,8.587,30.271C8.567,30.287,8.232,2.208,8.633,2.441Z" transform="translate(465.029 796.679) rotate(180)"/><line class="b" y2="136.665" transform="translate(383.331 712.335)"/><g class="b" transform="translate(277.818 740.137)"><rect class="c" width="33.161" height="81.034"/><rect class="d" x="1" y="1" width="31.161" height="79.034"/></g><g class="b" transform="translate(488.777 821.171) rotate(180)"><rect class="c" width="33.161" height="81.034"/><rect class="d" x="1" y="1" width="31.161" height="79.034"/></g><g class="b" transform="translate(277.818 762.245)"><rect class="c" width="11.054" height="36.819"/><rect class="d" x="1" y="1" width="9.054" height="34.819"/></g><g class="b" transform="translate(488.777 799.063) rotate(180)"><rect class="c" width="11.054" height="36.819"/><rect class="d" x="1" y="1" width="9.054" height="34.819"/></g></g></svg>