<svg xmlns="http://www.w3.org/2000/svg" viewBox="-2642 7588.151 28.51 19.766"><defs><style>.a,.b{fill:#5b5691;}.b{stroke:#fff;}</style></defs><g transform="translate(-2796.49 7483)"><path class="a" d="M14.229,7.333a3.667,3.667,0,1,0-3.667-3.667A3.659,3.659,0,0,0,14.229,7.333Zm0,1.692c-5.641,0-7.389,5.584-7.389,5.584a1.243,1.243,0,0,0,1.185,1.749h12.41a1.263,1.263,0,0,0,1.185-1.749S19.87,9.025,14.229,9.025Z" transform="translate(147.728 106.855)"/><path class="a" d="M14.229,7.333a3.667,3.667,0,1,0-3.667-3.667A3.659,3.659,0,0,0,14.229,7.333Zm0,1.692c-5.641,0-7.389,5.584-7.389,5.584a1.243,1.243,0,0,0,1.185,1.749h12.41a1.263,1.263,0,0,0,1.185-1.749S19.87,9.025,14.229,9.025Z" transform="translate(161.308 106.855)"/><path class="b" d="M15.328,8.412a4.206,4.206,0,1,0-4.206-4.206A4.2,4.2,0,0,0,15.328,8.412Zm0,1.941c-6.471,0-8.477,6.406-8.477,6.406A1.426,1.426,0,0,0,8.21,18.766H22.446a1.449,1.449,0,0,0,1.359-2.006S21.8,10.353,15.328,10.353Z" transform="translate(153.612 105.651)"/></g></svg>