<svg xmlns="http://www.w3.org/2000/svg" viewBox="3848 1854 50 50"><defs><style>.a{fill:#e2e1ed;}.b{fill:#aaaab3;}</style></defs><g transform="translate(3187 1384)"><rect class="a" width="50" height="50" transform="translate(661 470)"/><g transform="translate(645 157)"><circle class="a" cx="25" cy="25" r="25" transform="translate(16 313)"/><path class="b" d="M13.2,13A6.5,6.5,0,1,0,6.7,6.5,6.487,6.487,0,0,0,13.2,13Zm0,3C3.2,16,.1,25.9.1,25.9A2.239,2.239,0,0,0,2.2,29h22a2.239,2.239,0,0,0,2.1-3.1C26.3,26,23.2,16,13.2,16Z" transform="translate(28.029 322)"/></g></g></svg>