<svg xmlns="http://www.w3.org/2000/svg" viewBox="-6972.1 -3916.5 38.61 19.766"><defs><style>.a,.b{fill:#5b5691;}.b{stroke:#efefef;}</style></defs><g transform="translate(-7174 -4093)"><path class="a" d="M12.7,14.35a1.544,1.544,0,0,1-1.524,1.524h-3.3v3.175A1.575,1.575,0,0,1,6.35,20.7a1.544,1.544,0,0,1-1.524-1.524V16h-3.3A1.663,1.663,0,0,1,0,14.35a1.544,1.544,0,0,1,1.524-1.524H4.7V9.651A1.774,1.774,0,0,1,6.35,8,1.544,1.544,0,0,1,7.874,9.524V12.7h3.175A1.774,1.774,0,0,1,12.7,14.35Z" transform="translate(201.9 171.984)"/><g transform="translate(-42 166)"><path class="a" d="M14.229,7.333a3.667,3.667,0,1,0-3.667-3.667A3.659,3.659,0,0,0,14.229,7.333Zm0,1.692c-5.641,0-7.389,5.584-7.389,5.584a1.243,1.243,0,0,0,1.185,1.749h12.41a1.263,1.263,0,0,0,1.185-1.749S19.87,9.025,14.229,9.025Z" transform="translate(247.238 12.204)"/><path class="a" d="M14.229,7.333a3.667,3.667,0,1,0-3.667-3.667A3.659,3.659,0,0,0,14.229,7.333Zm0,1.692c-5.641,0-7.389,5.584-7.389,5.584a1.243,1.243,0,0,0,1.185,1.749h12.41a1.263,1.263,0,0,0,1.185-1.749S19.87,9.025,14.229,9.025Z" transform="translate(260.818 12.204)"/><path class="b" d="M15.328,8.412a4.206,4.206,0,1,0-4.206-4.206A4.2,4.2,0,0,0,15.328,8.412Zm0,1.941c-6.471,0-8.477,6.406-8.477,6.406A1.426,1.426,0,0,0,8.21,18.766H22.446a1.449,1.449,0,0,0,1.359-2.006S21.8,10.353,15.328,10.353Z" transform="translate(253.122 11)"/></g></g></svg>