<svg xmlns="http://www.w3.org/2000/svg" viewBox="-482 7401 16 15.717"><defs><style>.a{fill:#757298;}</style></defs><path class="a" d="M-349.308,372.939a5.962,5.962,0,0,0,1.366-3.77,6.122,6.122,0,0,0-6.179-6.07,6.164,6.164,0,0,0-6.179,6.07,6.164,6.164,0,0,0,6.179,6.07,6.565,6.565,0,0,0,3.837-1.278l4.943,4.856,1.041-1.022Zm-4.878,1.661a5.476,5.476,0,0,1-5.529-5.431,5.476,5.476,0,0,1,5.529-5.431,5.476,5.476,0,0,1,5.528,5.431A5.4,5.4,0,0,1-354.186,374.6Z" transform="translate(-121.7 7037.9)"/></svg>