<svg xmlns="http://www.w3.org/2000/svg" viewBox="3968.36 11626 23 23"><defs><style>.a{fill:#8d8d8d;}</style></defs><path class="a" d="M1754-5730.5a11.534,11.534,0,0,1,11.5-11.5,11.534,11.534,0,0,1,11.5,11.5,11.533,11.533,0,0,1-11.5,11.5A11.534,11.534,0,0,1,1754-5730.5Zm2.465,0a9.009,9.009,0,0,0,9.035,9.035,9.009,9.009,0,0,0,9.035-9.035,9.009,9.009,0,0,0-9.035-9.035A9.009,9.009,0,0,0,1756.465-5730.5Zm7.145.822h-4.682a.775.775,0,0,1-.82-.822.775.775,0,0,1,.82-.822h4.682a2.247,2.247,0,0,1,1.068-1.068v-5.5a.776.776,0,0,1,.822-.82.776.776,0,0,1,.822.82v5.5a2.076,2.076,0,0,1,1.232,1.89,2.034,2.034,0,0,1-2.054,2.054A2.076,2.076,0,0,1,1763.61-5729.678Z" transform="translate(2214.361 17368)"/></svg>