<svg xmlns="http://www.w3.org/2000/svg" viewBox="4537.2 11389.6 18.133 20.8"><defs><style>.a{fill:#8d8d8d;}</style></defs><path class="a" d="M2.63,20.8,1.9,5.789H16.23L15.595,20.8ZM11.7,8.139v10.22a.732.732,0,0,0,.633.814.732.732,0,0,0,.635-.814V8.139a.731.731,0,0,0-.635-.813A.731.731,0,0,0,11.7,8.139Zm-3.265,0v10.22a.732.732,0,0,0,.635.814.732.732,0,0,0,.635-.814V8.139a.731.731,0,0,0-.635-.813A.731.731,0,0,0,8.432,8.139Zm-3.263,0v10.22a.732.732,0,0,0,.633.814.732.732,0,0,0,.635-.814V8.139A.731.731,0,0,0,5.8,7.325.731.731,0,0,0,5.168,8.139ZM0,5.244V3.528l1.812-.905H4.533v-.18A2.435,2.435,0,0,1,6.981,0h4.17A2.435,2.435,0,0,1,13.6,2.443v.18h2.719l1.814.813V5.244Zm5.8-2.8v.18H12.33V2.352a1.1,1.1,0,0,0-1.088-1.085H6.981A1.2,1.2,0,0,0,5.8,2.443Z" transform="translate(4537.2 11389.6)"/></svg>