<svg xmlns="http://www.w3.org/2000/svg" viewBox="3969 11461 23 23"><defs><style>.a{fill:#8d8d8d;}</style></defs><g transform="translate(3969 11461)"><path class="a" d="M22.655,3.369,19.55.348a1.1,1.1,0,0,0-1.61,0L.345,18.47A1.261,1.261,0,0,0,0,19.283v2.788c0,.7.46.929,1.15.929H3.795a.964.964,0,0,0,.805-.232L22.655,4.995A1.129,1.129,0,0,0,22.655,3.369ZM5.06,19.631a.4.4,0,0,1-.23.116L3.22,18.121c0-.116.115-.116.115-.232l.69-.7L5.75,18.934Zm1.725-1.742-1.61-1.626L17.25,4.066l1.61,1.626ZM19.9,4.763l-1.61-1.626.805-.813,1.61,1.51Z" transform="translate(0 0)"/></g></svg>