<svg xmlns="http://www.w3.org/2000/svg" viewBox="3022 10631 60 52.653"><g transform="translate(3021.95 10631.009)"><path d="M374.336,220.268,372.8,219l2.023,4.083A2.211,2.211,0,0,0,374.336,220.268Z" transform="translate(-327.318 -192.315)"/><path d="M277.557,9.609a5.358,5.358,0,1,0-1.024-7.5A5.361,5.361,0,0,0,277.557,9.609Z" transform="translate(-241.826 0)"/><path d="M367.3,290.074a2.156,2.156,0,0,0-2.56-1.633l-1.073.244a3.087,3.087,0,0,1-3.449-1.645L353.693,273.9A4.252,4.252,0,0,1,350,276.106l6.374,12.846a7.376,7.376,0,0,0,6.618,4.107,11.262,11.262,0,0,0,2.681-.414A2.163,2.163,0,0,0,367.3,290.074Z" transform="translate(-307.297 -240.524)"/><path d="M311.048,187.489A2.116,2.116,0,0,0,310,188.672l5.29,2.535-1.365-2.742A2.141,2.141,0,0,0,311.048,187.489Z" transform="translate(-272.172 -164.449)"/><path d="M44.69,98.225a2.265,2.265,0,0,0-1.06-3.011l-9.361-4.5L34.122,79.26c1.268,7.411.9,5.229,1.706,9.946l.073.037a4.081,4.081,0,0,1,3.145-2.535c-1.828-7.081-1.633-8.142-3.388-9.47l-1.572-1.194a4.62,4.62,0,0,0-6.46.878L17.839,89.84a2.9,2.9,0,0,0-.414.792v.012l-.024.049-7,14.187-9.251,8.069a3.222,3.222,0,1,0,4.229,4.863l9.738-8.5a3.138,3.138,0,0,0,.768-1.012L21.52,96.86l6.862,5.96-3.23,11.689a3.219,3.219,0,1,0,6.2,1.719l3.791-13.651a3.223,3.223,0,0,0-.987-3.291c-3.827-3.327-2.816-2.438-6.167-5.363a3.331,3.331,0,0,1-.244-1.719l1.877-12.9.158,12.871a2.235,2.235,0,0,0,1.28,2l10.628,5.095A2.232,2.232,0,0,0,44.69,98.225Z" transform="translate(0 -65.958)"/></g></svg>