<svg xmlns="http://www.w3.org/2000/svg" viewBox="3027 10752 49.232 60"><g transform="translate(3027.007 10752.006)"><g transform="translate(-0.007 -0.006)"><path d="M157.736,11.922a6.141,6.141,0,1,0-7.874-3.683A6.153,6.153,0,0,0,157.736,11.922Z" transform="translate(-132.242 0.006)"/><path d="M.5,129.978a3.234,3.234,0,0,0,.427.774,6.324,6.324,0,0,0,1.016,1.374c.092.081.185.139.289.219l5.253,6.385L2.43,149.895a3.845,3.845,0,0,0,7.008,3.164l6.038-13.324a5.6,5.6,0,0,0,.127-.566,3.4,3.4,0,0,0,.185-.808,5.169,5.169,0,0,0-.069-.739,3.719,3.719,0,0,0-.127-.716,6.392,6.392,0,0,0-.381-.739c2.378.958,4.641,1.905,5.727,2.355.693,2.979,3.325,14.282,3.337,14.305a3.835,3.835,0,0,0,4.6,2.817,3.9,3.9,0,0,0,2.886-4.63l-3.775-16.176a3.836,3.836,0,0,0-2.286-2.69l-10.38-4.3,1.951-2.009,21.51,3.96a3.639,3.639,0,0,0,.6.058,3.312,3.312,0,0,0,3.129-2.263,3.287,3.287,0,0,0,.312-.369,2.982,2.982,0,0,0-.82-4.168L20.869,108.942a4.6,4.6,0,0,0-5.588.554L1.887,122.889a6.571,6.571,0,0,0-1.767,5.9A3.587,3.587,0,0,0,.5,129.978ZM24.413,118.5,28.4,121.18l-5.577-1.028Z" transform="translate(0.007 -95.744)"/><ellipse cx="5.403" cy="5.403" rx="5.403" ry="5.403" transform="translate(38.425 12.459)"/></g></g></svg>