<svg xmlns="http://www.w3.org/2000/svg" viewBox="3150 10497 60 60"><g transform="translate(3150.036 10497.036)"><g transform="translate(38.197 -0.036)"><g transform="translate(0 0)"><path d="M342.594,5.429c-3.9-3.9-9.373-5.765-15.7-5.425a.631.631,0,0,0-.41,1.078l20.48,20.167a.636.636,0,0,0,1.078-.422C348.288,14.627,346.425,9.272,342.594,5.429Z" transform="translate(-326.296 0.036)"/></g></g><g transform="translate(-0.036 38.195)"><g transform="translate(0)"><path d="M21.842,346.855,1.081,326.407A.634.634,0,0,0,0,326.829c-.34,6.328,1.523,11.8,5.425,15.69a19.622,19.622,0,0,0,14.247,5.472c.574,0,1.172-.023,1.757-.059A.632.632,0,0,0,21.842,346.855Z" transform="translate(0.036 -326.222)"/></g></g><g transform="translate(1.312 1.345)"><path d="M68.646,38.11l-26.6-26.178a.609.609,0,0,0-.621-.152A44.885,44.885,0,0,0,22.942,23.2,44.972,44.972,0,0,0,11.5,41.777a.635.635,0,0,0,.164.633L38.419,68.764a.63.63,0,0,0,.633.152A45.1,45.1,0,0,0,57.305,57.562,44.823,44.823,0,0,0,68.822,38.743.652.652,0,0,0,68.646,38.11Zm-13.954.246a2.424,2.424,0,0,1-1.711.715,2.375,2.375,0,0,1-1.711-.715l-2.695-2.672L46.561,37.7l2.683,2.683a2.431,2.431,0,0,1-1.711,4.148,2.375,2.375,0,0,1-1.711-.715L43.14,41.133l-1.992,1.992,2.683,2.683a2.431,2.431,0,0,1-1.711,4.148,2.375,2.375,0,0,1-1.711-.715l-2.683-2.683-1.968,1.969,2.683,2.683a2.431,2.431,0,0,1-1.711,4.148,2.375,2.375,0,0,1-1.711-.715L32.338,51.96l-1.851,1.851a2.424,2.424,0,0,1-1.711.715,2.376,2.376,0,0,1-1.711-.715,2.426,2.426,0,0,1,0-3.433l1.851-1.851-2.566-2.566a2.428,2.428,0,0,1,3.433-3.433l2.566,2.566,1.968-1.969-2.566-2.566a2.428,2.428,0,1,1,3.433-3.433l2.566,2.566L39.743,37.7l-2.566-2.566A2.428,2.428,0,0,1,40.61,31.7l2.566,2.566,2.015-2.015-2.613-2.566a2.428,2.428,0,0,1,3.433-3.433l2.566,2.566,1.687-1.687A2.428,2.428,0,0,1,53.7,30.563l-1.687,1.687,2.683,2.683A2.433,2.433,0,0,1,54.692,38.356Z" transform="translate(-11.468 -11.75)"/></g></g></svg>