<svg xmlns="http://www.w3.org/2000/svg" viewBox="3150 10752 60 60"><g transform="translate(3150 10752)"><path d="M50.32,7.934a.2.2,0,0,0-.2-.2.2.2,0,0,1-.2-.2,30.1,30.1,0,0,0-39.855.012.2.2,0,0,0-.2.2.2.2,0,0,1-.2.2,30.009,30.009,0,0,0,.2,44.309.2.2,0,0,0,.2.2.2.2,0,0,1,.2.2,29.887,29.887,0,0,0,39.48-.2.2.2,0,0,0,.2-.2.2.2,0,0,1,.2-.2A29.5,29.5,0,0,0,60,30,29.985,29.985,0,0,0,50.32,7.934ZM12.387,46.453A10.409,10.409,0,0,1,11.227,48,25.309,25.309,0,0,1,3.867,30a26.313,26.313,0,0,1,7.16-18A8.013,8.013,0,0,0,12,13.359a1.76,1.76,0,0,0-.2,2.133,2.033,2.033,0,0,0,1.746.973h.2a24.991,24.991,0,0,1,1.547,4.066,2.134,2.134,0,0,0-.773,2.133,1.9,1.9,0,0,0,1.547,1.359,24.542,24.542,0,0,1,.773,4.066,1.866,1.866,0,0,0-1.16,1.746,1.984,1.984,0,0,0,1.16,1.746,32.421,32.421,0,0,1-.387,4.254A1.881,1.881,0,0,0,14.906,37.2a2.316,2.316,0,0,0,.773,2.133,36.032,36.032,0,0,1-1.547,4.066,1.968,1.968,0,0,0-1.934.973A1.667,1.667,0,0,0,12.387,46.453ZM30.2,55.746a24.227,24.227,0,0,1-16.066-5.027c.586-.773.973-1.359,1.547-2.133h.387a2.3,2.3,0,0,0,1.746-.973,2.016,2.016,0,0,0-.2-2.32,48.97,48.97,0,0,0,1.934-4.84,1.875,1.875,0,0,0,1.746-1.359,2.157,2.157,0,0,0-.773-2.133,24.062,24.062,0,0,0,.586-5.227,1.8,1.8,0,0,0,0-3.492,50.2,50.2,0,0,0-.773-5.227,1.836,1.836,0,0,0,.773-2.133,1.875,1.875,0,0,0-1.746-1.359c-.773-1.934-1.547-3.48-2.32-5.027a1.761,1.761,0,0,0,.2-2.32A1.705,1.705,0,0,0,15.3,11.2a10.4,10.4,0,0,1-1.359-1.746,26.094,26.094,0,0,1,32.309.023c-.387.586-.973,1.16-1.359,1.746A1.933,1.933,0,0,0,42.762,12a2.016,2.016,0,0,0,.2,2.32,37.052,37.052,0,0,0-2.133,4.84,1.875,1.875,0,0,0-1.746,1.359,2.157,2.157,0,0,0,.773,2.133,47.253,47.253,0,0,0-.773,5.227,1.8,1.8,0,0,0,0,3.492,24.062,24.062,0,0,0,.586,5.227,1.633,1.633,0,0,0-.773,2.133,1.875,1.875,0,0,0,1.746,1.359,36.541,36.541,0,0,0,1.934,4.84,1.761,1.761,0,0,0-.2,2.32,2.033,2.033,0,0,0,1.746.973h.387a15.258,15.258,0,0,0,1.547,2.133A25.538,25.538,0,0,1,30.2,55.746ZM48.773,48a7.312,7.312,0,0,1-.973-1.547A1.76,1.76,0,0,0,48,44.32a1.968,1.968,0,0,0-1.934-.973,33.915,33.915,0,0,1-1.547-4.066,1.992,1.992,0,0,0,.773-2.133,1.651,1.651,0,0,0-1.547-1.359,30.854,30.854,0,0,1-.387-4.254,1.894,1.894,0,0,0,0-3.492,16.048,16.048,0,0,1,.586-4.254,1.881,1.881,0,0,0,1.547-1.359,1.933,1.933,0,0,0-.773-2.133,36.03,36.03,0,0,1,1.547-4.066h.2a1.7,1.7,0,0,0,1.547-.973,1.735,1.735,0,0,0-.2-2.133,5.325,5.325,0,0,1,.973-1.16A25.845,25.845,0,0,1,56.133,30,25.309,25.309,0,0,1,48.773,48Z"/></g></svg>