<svg xmlns="http://www.w3.org/2000/svg" viewBox="3824 10484 60 58.4"><defs><style>.a{fill:#fff;}</style></defs><g transform="translate(3823.997 10484.005)"><path class="a" d="M121.608,214a6.808,6.808,0,1,0,6.808,6.808A6.811,6.811,0,0,0,121.608,214Zm0,9.716a2.889,2.889,0,1,1,2.889-2.889A2.888,2.888,0,0,1,121.608,223.716Z" transform="translate(-91.607 -170.775)"/><path class="a" d="M32.768,29.994l2.586-2.586a6.445,6.445,0,0,0,3.252.909,6.683,6.683,0,0,0,2.222-.384A16.166,16.166,0,0,0,46.1,24.358c.929-.828,2.444-.99,4.181-1.151,2.323-.222,5.232-.505,7.474-2.788a7.22,7.22,0,0,0-.02-10.464L50.019,2.239a7.256,7.256,0,0,0-10.464,0C37.272,4.481,36.99,7.37,36.767,9.713c-.162,1.757-.323,3.252-1.151,4.181a16.71,16.71,0,0,0-3.575,5.272,6.3,6.3,0,0,0,.525,5.474L29.98,27.226l-2.565-2.586a6.294,6.294,0,0,0,.525-5.474,16.166,16.166,0,0,0-3.575-5.272c-.828-.929-.99-2.444-1.151-4.181-.222-2.323-.505-5.232-2.788-7.474a7.24,7.24,0,0,0-10.464.02l-7.7,7.7a7.263,7.263,0,0,0-.02,10.484C4.487,22.722,7.376,23,9.719,23.227c1.757.162,3.252.323,4.181,1.151a16.71,16.71,0,0,0,5.272,3.575,6.683,6.683,0,0,0,2.222.384,6.445,6.445,0,0,0,3.252-.909l2.586,2.586L2.184,55.063A1.949,1.949,0,0,0,3.578,58.4a1.955,1.955,0,0,0,1.394-.566L30.02,32.782,54.6,57.365A1.964,1.964,0,1,0,57.392,54.6Zm9.07-24.382L44.08,7.854l-2.02,2.02L40.828,8.642A6.5,6.5,0,0,1,41.838,5.612Zm11.918,5.919L52.14,13.147,50.2,11.208l1.616-1.616Zm-3.01,2.99-2.02,2.02L46.787,14.6l2.02-2.02Zm.606,4.646L50.12,17.934l2.02-2.02,2.242,2.242A6.5,6.5,0,0,1,51.352,19.167Zm-5.939-3.192,1.939,1.939-2.02,2.02-1.939-1.939ZM42,16.6,40.06,14.662l2.02-2.02,1.939,1.939Zm3.414-3.394-1.939-1.939,2.02-2.02,1.939,1.939ZM38.545,16.52c.1-.1.182-.222.283-.323l1.8,1.8-2.02,2.02L36.99,18.4A21.035,21.035,0,0,1,38.545,16.52Zm-1.333,4.868-1.252,1.252a2.621,2.621,0,0,1-.04-2.565Zm.141,2.646,1.252-1.252L39.919,24.1A2.619,2.619,0,0,1,37.353,24.035Zm4.262-1.01L40,21.409l2.02-2.02,1.8,1.8a4.045,4.045,0,0,0-.323.283C42.787,22.075,42.161,22.6,41.615,23.025Zm14.1-6.323L53.534,14.52l1.6-1.6a4.752,4.752,0,0,1,.788,1.434A2.8,2.8,0,0,1,55.715,16.7ZM50.423,8.2,48.807,9.814,46.868,7.875l1.616-1.616ZM45.534,4.036a4.557,4.557,0,0,1,1.535.828l-1.6,1.6L43.292,4.279A2.813,2.813,0,0,1,45.534,4.036ZM5.618,18.157l2.242-2.242,2.02,2.02L8.648,19.167A6.5,6.5,0,0,1,5.618,18.157Zm-1.576-3.7a4.557,4.557,0,0,1,.828-1.535l1.6,1.6L4.285,16.7A2.813,2.813,0,0,1,4.043,14.46ZM8.2,9.571,9.82,11.187,7.861,13.127,6.245,11.511Zm9.959-3.959a6.646,6.646,0,0,1,.99,3.03L17.92,9.874,15.9,7.854Zm-1.616,5.636-1.939,1.939-2.02-2.02,1.939-1.939Zm-3.333,3.333L11.275,16.52,9.255,14.5l1.939-1.939Zm-.566,3.333,1.939-1.939,2.02,2.02-1.939,1.939Zm3.333-3.333,1.939-1.939,2.02,2.02L18,16.6ZM21.193,16.2a4.045,4.045,0,0,0,.283.323c.626.687,1.151,1.313,1.555,1.858l-1.616,1.616-2.02-2.02Zm2.889,3.9a2.621,2.621,0,0,1-.04,2.565l-1.252-1.252ZM16.708,4.279,14.527,6.461l-1.6-1.6a4.752,4.752,0,0,1,1.434-.788A2.8,2.8,0,0,1,16.708,4.279ZM11.537,6.238l1.616,1.616L11.214,9.794,9.6,8.178ZM16.2,21.187l1.8-1.8,2.02,2.02-1.616,1.616c-.545-.424-1.172-.929-1.858-1.555C16.405,21.348,16.3,21.267,16.2,21.187Zm3.9,2.889,1.313-1.313,1.252,1.252A2.525,2.525,0,0,1,20.1,24.075Z"/></g></svg>