<svg xmlns="http://www.w3.org/2000/svg" viewBox="3824 10405 60 56.012"><defs><style>.a{fill:#fff;}</style></defs><g transform="translate(3824 10405)"><g transform="translate(0 3.539)"><path class="a" d="M58.1,36.54H56.508V31.2a1,1,0,0,0-1-1h-2.73a1,1,0,0,0-1,1V36.54h-3.5a2.779,2.779,0,0,0-5.531-.551l-.059.551H37.875a8.683,8.683,0,0,1-15.773,0H17.309l-.059-.551a2.779,2.779,0,0,0-5.531.551H8.227V31.2a1,1,0,0,0-1-1H4.488a1,1,0,0,0-1,1V36.54H1.9a1.9,1.9,0,1,0,0,3.8H3.492V45.68a1,1,0,0,0,1,1h2.73a1,1,0,0,0,1-1V40.337h3.9c.117,1.137.973,9.141,1.09,10.324A2.783,2.783,0,0,0,18.07,52.2l3.9-4.477V58.36L11.859,62.473a3.63,3.63,0,0,0-2.215,2.8l-2,13.23a3.616,3.616,0,0,0,7.148,1.1L16.5,68.415l9.352-3.8H34.16l9.352,3.8,1.711,11.191a3.616,3.616,0,0,0,7.148-1.1l-2.016-13.23a3.607,3.607,0,0,0-2.215-2.8l-10.2-4.137v-10.7l4,4.57A2.788,2.788,0,0,0,46.8,50.673c.129-1.184.973-9.2,1.09-10.324h3.891v5.344a1,1,0,0,0,1,1h2.73a1,1,0,0,0,1-1V40.348H58.1a1.9,1.9,0,0,0,0-3.809Zm-40.02,7.207c-.152-1.418-.211-2.016-.363-3.41h3.34C19.852,41.72,19.3,42.341,18.082,43.747Zm23.848,0c-1.383-1.582.4.445-2.988-3.41h3.34C42.012,42.985,42.082,42.329,41.93,43.747Z" transform="translate(0 -30.2)"/></g><g transform="translate(23.754 0)"><circle class="a" cx="6.246" cy="6.246" r="6.246"/></g></g></svg>