<svg xmlns="http://www.w3.org/2000/svg" viewBox="3022 10496 60 60.012"><g transform="translate(3022.1 10496)"><g transform="translate(-0.1)"><path d="M171.039,4.85c.675-.9.565-2.812.479-4.494,0-.074-.012-.147-.012-.221C170.548.049,169.59,0,168.608,0A29.848,29.848,0,0,0,158,1.94a70,70,0,0,1,10.043,5.955A21.518,21.518,0,0,0,171.039,4.85Z" transform="translate(-138.589)"/><path d="M360.894,178.778a20.119,20.119,0,0,0-3.794.749c5.1,8.9,7.084,20.147,7.575,28.3a29.883,29.883,0,0,0,8.57-19.816C369.758,183.726,365.154,178.287,360.894,178.778Z" transform="translate(-313.245 -156.802)"/><path d="M35.921,39.994a26.652,26.652,0,0,0,9.638-4.457,63.6,63.6,0,0,0-11.2-6.237A30.052,30.052,0,0,0,21.2,43.505a59.161,59.161,0,0,1,11.062-2.812C33.465,40.473,34.717,40.239,35.921,39.994Z" transform="translate(-18.585 -25.703)"/><path d="M310,86.657c.319.319.638.651.958.982a31.662,31.662,0,0,1,3.2,3.99,21.073,21.073,0,0,1,5.083-1.142c4.7-.528,8.889,3.192,12.474,7.293A29.874,29.874,0,0,0,324.3,81.5a41.787,41.787,0,0,0-7.047,1.436A34.269,34.269,0,0,0,310,86.657Z" transform="translate(-271.928 -71.494)"/><path d="M90.262,151.012c1.228-4.174,2.652-7.17,5.414-9.122a28.668,28.668,0,0,0-2.689-3.327c-.442-.467-.9-.921-1.351-1.363C80.55,144.738,65.375,158.6,64,170.607a29.915,29.915,0,0,0,18.011,9.478c2.591-5.144,5.021-15.6,6.458-21.829C89.169,155.26,89.77,152.682,90.262,151.012Z" transform="translate(-56.13 -120.355)"/><path d="M21.459,107.463a107.325,107.325,0,0,1,11.676-9.319c-1.24-1.1-2.492-2.112-3.72-3.045a30.072,30.072,0,0,1-11.578,5.549c-1.24.258-2.5.491-3.732.724-4.715.872-9.245,1.731-13.063,3.855A30.231,30.231,0,0,0-.1,113.443a29.868,29.868,0,0,0,5.378,17.139C7.487,121.877,15.026,113.406,21.459,107.463Z" transform="translate(0.1 -83.424)"/><path d="M263.717,17.225a39.535,39.535,0,0,1,8.643-4.444,45.3,45.3,0,0,1,5.218-1.215A29.906,29.906,0,0,0,263.827,4.8c.111,2.1.16,4.4-1.093,6.065a23.433,23.433,0,0,1-2.934,3.069C261.1,14.929,262.4,16.034,263.717,17.225Z" transform="translate(-227.891 -4.211)"/><path d="M244.456,203.44c-.467,1.584-1.056,4.125-1.743,7.072-2.014,8.692-3.953,16.464-6.212,21.412.319.012.638.025.958.025a29.852,29.852,0,0,0,18.527-6.409c-.2-8.533-2.247-20.589-7.391-29.54C246.6,197.486,245.524,199.818,244.456,203.44Z" transform="translate(-207.451 -171.936)"/></g></g></svg>