<svg xmlns="http://www.w3.org/2000/svg" viewBox="3711 10494 60 60"><defs><style>.a{fill:#fff;}</style></defs><path class="a" d="M30,0A30,30,0,1,0,60,30,30.03,30.03,0,0,0,30,0Zm1.556,8.747,6.081-4.384A26.814,26.814,0,0,1,51.9,14.667L49.576,21.9l-8.283,2.687-9.737-7.051ZM22.3,4.343l6.02,4.384v8.788l-9.576,6.97L10.3,21.758,8.02,14.707A26.89,26.89,0,0,1,22.3,4.343ZM8.525,45.98A26.753,26.753,0,0,1,3.232,30c0-.242,0-.485.02-.727l6.1-4.424,8.626,2.808,3.576,10.97L16.162,46Zm30.1,9.374a26.862,26.862,0,0,1-17.495-.1l-2.384-7.333,5.394-7.414H35.556L41.01,48Zm5.03-9.212-5.273-7.253L42.02,27.737l8.566-2.788,6.182,4.505V30a26.661,26.661,0,0,1-5.434,16.162Z" transform="translate(3711 10494)"/></svg>