<svg xmlns="http://www.w3.org/2000/svg" viewBox="893.137 -583.506 150.199 42.187"><defs><style>.a{fill:#c92a1d;}</style></defs><path class="a" d="M143.324,199.308c5.147,0,6.51,1.7,6.51,4.857,0,3.7-1.9,4.908-6.594,4.908H128.707v-1.512h14.214c4.121,0,5.3-.544,5.3-3.4s-1.194-3.4-5.366-3.4h-9c-4.289,0-5.736-1.274-5.736-4.484,0-2.751,1.464-4.331,5.753-4.331H149.01v1.512H134.174c-3.768,0-4.441.883-4.441,2.836s.639,3.04,4.441,3.04h9.151ZM120.7,191.9h-.421l-10.211,11.26L99.858,191.886H97.873v17.153h1.581V193.652l9.857,10.9h1.548l9.857-10.9v15.4h1.514V191.9Zm-86.075,0H13.749v1.477H23.4v15.676h1.581V193.38h9.656Zm22.793,8.814V199.24H49.646v1.478Zm4.39-7.354v-1.478H40.932v17.153H61.808v-1.478H42.513v-6.793h8.528v-1.478H42.513v-5.876Zm18.773-1.478H78.394L67.325,209.039h1.817l2.624-4.076H87.174l2.641,4.076h1.817Zm-7.822,11.549,6.729-10.343,6.729,10.343ZM28.367,174.291c5.147,0,6.51,1.7,6.51,4.857,0,3.7-1.9,4.908-6.594,4.908H13.749v-1.512H28.03c4.121,0,5.3-.543,5.3-3.4s-1.194-3.4-5.366-3.4H18.9c-4.289,0-5.736-1.274-5.736-4.484,0-2.751,1.463-4.331,5.753-4.331H34.052v1.512H19.216c-3.768,0-4.441.883-4.441,2.836s.639,3.04,4.441,3.04h9.151Zm27.4-7.4H40.932v17.153h1.581v-6.657H55.887c4.643,0,6.729-1.121,6.729-5.384.034-3.227-1.749-5.078-6.846-5.078Zm-.236,8.967H42.513V168.4H55.449c4.155,0,5.534,1.036,5.534,3.6,0,3.295-1.312,3.889-5.467,3.889ZM68,184.039H87.04v-1.512H69.562V166.9H67.981Zm18.5-17.153L97.94,179.522v4.5h1.548v-4.467l11.439-12.636h-2.069L98.68,178.18,88.47,166.9Zm49.186,15.71h-19.21l19.21-13.96v-1.7H114.846v1.478h18.773l-19.244,13.961v1.7h21.313Zm16.653-15.676h-2.187l-11.1,17.153h1.817L143.493,180H158.9l2.641,4.076h1.817Zm-7.822,11.549,6.729-10.343,6.729,10.343Z" transform="translate(879.977 -750.392)"/></svg>