<svg xmlns="http://www.w3.org/2000/svg" viewBox="-3889 11036.583 36.706 32"><defs><style>.a{fill:#0f0c31;}</style></defs><g transform="translate(-3889 11036.483)"><path class="a" d="M0,202.83c9.324,6,19.691-1.07,20.425-6.93a18.162,18.162,0,0,1-13.7,7.586A19.173,19.173,0,0,1,0,202.83Z" transform="translate(0 -176.928)"/><path class="a" d="M233.3,81.382c-2.4-6.843-8.2-7.682-8.2-7.682s4.527,2.67,6.072,9.484-2.326,13.378-2.326,13.378S236.577,90.731,233.3,81.382Z" transform="translate(-203.372 -66.506)"/><path class="a" d="M125.59,8.582a10.967,10.967,0,0,1,2.944-4.347A4.35,4.35,0,0,1,128.65.1C128.65.09,124.5,2.384,125.59,8.582Z" transform="translate(-113.303 0)"/><path class="a" d="M179.95,98.7s3.349,6.622.975,13.436a20.047,20.047,0,0,1-6.525,9.06,13.2,13.2,0,0,0,5.55-22.5Z" transform="translate(-157.566 -89.097)"/><path class="a" d="M91.268,167.624A17.417,17.417,0,0,1,84,170.516a12.166,12.166,0,0,0,14-7.9,13.086,13.086,0,0,0,.627-7.412S97.813,163.258,91.268,167.624Z" transform="translate(-75.892 -140.151)"/><path class="a" d="M147.908,15.283c-6.622-2.67-13.06.27-15.908,6.737,0,0,4.344-3.663,9.353-2.67,8.533,1.7,12.172,11.248,8.89,19.826C159.317,32.045,156.894,18.917,147.908,15.283Z" transform="translate(-119.258 -12.832)"/></g></svg>