<svg xmlns="http://www.w3.org/2000/svg" viewBox="-1645 1490 50 50"><defs><style>.a{fill:none;}.b{fill:#d92817;}</style></defs><g transform="translate(-1645 1490)"><rect class="a" width="50" height="50"/><path class="b" d="M16.686,44.486A19.9,19.9,0,0,0,31.7,36.158C30.91,42.6,19.554,50.358,9.33,43.784a21.209,21.209,0,0,0,7.356.7ZM42.127,31.666c-2.637-7.511-8.99-8.439-8.99-8.439s4.969,2.928,6.659,10.4-2.552,14.7-2.552,14.7S45.722,41.929,42.127,31.666ZM22.8,24.731a12.1,12.1,0,0,1,3.224-4.778,4.8,4.8,0,0,1,.125-4.543C26.147,15.435,21.6,17.947,22.8,24.731Zm11.066,1.123s3.675,7.27,1.068,14.751a21.972,21.972,0,0,1-7.155,9.963,14.5,14.5,0,0,0,6.087-24.694Zm-7.682,19.64a19.139,19.139,0,0,1-7.992,3.174c6.844,1.339,12.871-2.291,15.343-8.674a14.435,14.435,0,0,0,.7-8.138S33.362,40.706,26.182,45.494ZM40.753,18.027c-7.26-2.933-14.31.291-17.439,7.4,0,0,4.763-4.011,10.254-2.928,9.356,1.855,13.342,12.35,9.747,21.766C53.233,36.429,50.586,22.013,40.753,18.027Z" transform="translate(-4.652 -7.683)"/></g></svg>