<svg xmlns="http://www.w3.org/2000/svg" viewBox="-2095.7 1503.039 184.674 55.138"><defs><style>.a{fill:#d92817;}</style></defs><path class="a" d="M32.062,65.772A31.138,31.138,0,0,0,55.624,52.7c-1.238,10.1-19.088,22.286-35.1,11.945A33.29,33.29,0,0,0,32.062,65.772ZM71.952,45.64c-4.1-11.788-14.07-13.227-14.07-13.227s7.8,4.6,10.439,16.336-4,23.062-4,23.062S77.641,61.753,71.99,45.648Zm-30.3-10.849A18.773,18.773,0,0,1,46.713,27.3s-1.871-2.982.2-7.128C46.915,20.163,39.779,24.114,41.651,34.791Zm17.373,1.76s5.771,11.415,1.67,23.114A34.485,34.485,0,0,1,49.465,75.308a22.764,22.764,0,0,0,9.559-38.772ZM46.974,67.345a30.018,30.018,0,0,1-12.511,4.981c10.737,2.1,20.2-3.594,24.083-13.615a22.659,22.659,0,0,0,1.1-12.765S58.241,59.829,46.974,67.345Zm22.831-43.1C58.412,19.633,47.347,24.7,42.434,35.85c0,0,7.456-6.308,16.09-4.6,14.681,2.908,20.944,19.364,15.293,34.157C89.43,53.119,85.277,30.482,69.805,24.241ZM190.759,53.4c3.728,0,4.667,1.163,4.667,3.445,0,2.632-1.357,3.482-4.735,3.482H180.253V59.255H190.46c2.982,0,3.8-.38,3.8-2.4s-.85-2.438-3.847-2.438h-6.457c-3.079,0-4.108-.9-4.108-3.184,0-1.954,1.044-3.079,4.123-3.079h10.811v1.081h-10.61c-2.7,0-3.184.626-3.184,2.021,0,1.491.455,2.162,3.184,2.162h6.561Zm-16.225-5.257h-.3l-7.329,8.008-7.344-8.008h-1.417V60.306h1.133V49.383l7.068,7.747h1.111l7.068-7.747V60.306h1.133V48.145Zm-61.759,0H97.8v1.044h6.919V60.306h1.163V49.189H112.8Zm16.351,6.271V53.372h-5.577v1.044Zm3.146-5.219V48.153H117.293V60.306h14.979V59.263H118.427V54.416h6.092V53.372H118.4V49.2Zm13.563-1.044H144.27l-7.941,12.154h1.3l1.879-2.893H150.57l1.894,2.893h1.3Zm-5.607,8.2L145.052,49l4.817,7.344Zm-31.95-20.713c3.728,0,4.668,1.163,4.668,3.445,0,2.632-1.357,3.482-4.735,3.482H97.773V41.487h10.207c2.982,0,3.8-.38,3.8-2.4s-.85-2.438-3.847-2.438h-6.457c-3.079,0-4.108-.9-4.108-3.184,0-1.954,1.044-3.079,4.123-3.079H112.3v1.081H101.71c-2.7,0-3.184.626-3.184,2.021,0,1.491.455,2.162,3.184,2.162h6.561Zm19.654-5.257h-10.64V42.568h1.133V37.834h9.6c3.325,0,4.861-.8,4.861-3.832C132.877,31.7,131.594,30.385,127.933,30.385Zm-.171,6.375h-9.335V31.466h9.283c2.982,0,3.967.746,3.967,2.557,0,2.311-.939,2.729-3.914,2.729Zm8.947,5.816h13.667V41.487H137.842v-11.1h-1.133Zm13.235-12.191,8.2,8.947v3.206h1.111V39.332l8.2-8.947h-1.424L158.7,38.393l-7.344-8.008Zm35.364,11.147H171.492L185.308,31.6V30.385H170.329v1.044h13.466L170,41.353v1.215h15.322Zm11.93-11.147h-1.566l-7.933,12.183h1.3l1.879-2.893h11.065l1.9,2.893h1.3Zm-5.607,8.2,4.832-7.359,4.809,7.352Z" transform="translate(-2116.22 1482.869)"/></svg>