<svg xmlns="http://www.w3.org/2000/svg" viewBox="-1298 11148 28 28"><defs><style>.a{fill:#fff;}</style></defs><g transform="translate(-1688 11088)"><path class="a" d="M28,13.733a.131.131,0,0,0-.134-.134C25,13.6,19,13.58,16.254,13.58c-3.82,0-8.308-1.719-8.308-6.551A4.775,4.775,0,0,1,9.588,3.285c1.776-1.528,4.718-1.948,8.079-1.165,3.5.821,6.341,3.763,8.1,6.074a.124.124,0,0,0,.172.038.173.173,0,0,0,.057-.191A13.22,13.22,0,0,0,14,0h0A14.365,14.365,0,0,0,0,14v.267a.131.131,0,0,0,.134.134C3,14.4,9,14.42,11.746,14.42c3.82,0,8.308,1.719,8.308,6.551a4.775,4.775,0,0,1-1.643,3.744c-1.776,1.528-4.718,1.948-8.079,1.165-3.5-.821-6.341-3.763-8.1-6.074a.124.124,0,0,0-.172-.038.173.173,0,0,0-.057.191A13.174,13.174,0,0,0,13.981,28h0a14.365,14.365,0,0,0,14-14A1.56,1.56,0,0,0,28,13.733Z" transform="translate(390 60)"/></g></svg>