<svg xmlns="http://www.w3.org/2000/svg" viewBox="-31.599 -651.086 199.483 259.357"><defs><style>.a{fill:#c92a1d;}</style></defs><path class="a" d="M186.035,259.9c6.836,0,8.646,2.234,8.646,6.39,0,4.87-2.525,6.457-8.758,6.457h-19.3v-1.988H185.5c5.474,0,7.037-.715,7.037-4.468s-1.586-4.468-7.127-4.468H173.457c-5.7,0-7.618-1.675-7.618-5.9,0-3.619,1.944-5.7,7.641-5.7h20.107v1.988h-19.7c-5,0-5.9,1.162-5.9,3.731s.849,4,5.9,4h12.154Zm-30.049-9.741h-.559l-13.561,14.812-13.561-14.835h-2.636V272.7h2.1V252.461L140.861,266.8h2.055l13.092-14.343v20.263h2.011V250.16Zm-114.319,0H13.942V252.1H26.766v20.621h2.1V252.1H41.689Zm30.272,11.6v-1.944H61.618v1.944Zm5.831-9.674v-1.944H50.045V272.7H77.77v-1.944H52.145v-8.937H63.472v-1.944H52.145v-7.73Zm24.932-1.944H99.8L85.1,272.7h2.413L91,267.341H111.46l3.508,5.362h2.413ZM92.314,265.33l8.936-13.605,8.936,13.605ZM33.356,226.993c6.836,0,8.646,2.234,8.646,6.389,0,4.87-2.525,6.457-8.758,6.457h-19.3V237.85H32.909c5.474,0,7.037-.715,7.037-4.468s-1.586-4.468-7.127-4.468H20.778c-5.7,0-7.618-1.676-7.618-5.9,0-3.619,1.944-5.7,7.641-5.7H40.908v1.988H21.2c-5,0-5.9,1.162-5.9,3.731s.849,4,5.9,4H33.356Zm36.393-9.741h-19.7v22.564h2.1v-8.758H69.906c6.166,0,8.936-1.475,8.936-7.082.045-4.245-2.323-6.68-9.093-6.68Zm-.313,11.8H52.145V219.24h17.18c5.518,0,7.35,1.363,7.35,4.736,0,4.334-1.743,5.116-7.261,5.116Zm16.555,10.768h25.29v-1.988H88.069V217.274h-2.1Zm24.575-22.564,15.192,16.622v5.92h2.055v-5.876L143.006,217.3h-2.748l-13.516,14.812-13.561-14.834Zm65.325,20.665H150.378l25.514-18.364v-2.234H148.211v1.944h24.933l-25.558,18.364v2.234h28.306ZM198.009,217.3h-2.9L180.36,239.861h2.413l3.485-5.362h20.464l3.508,5.362h2.413Zm-10.389,15.192,8.936-13.606,8.936,13.606ZM47.878,149.961c30.25-2.234,55.964-17.627,70.6-39.164-3.82,30.272-57.215,66.777-105.293,35.768a99.751,99.751,0,0,0,34.7,3.4ZM167.4,89.64c-12.377-35.321-42.269-39.633-42.269-39.633S148.5,63.792,156.41,98.956s-11.975,69.1-11.975,69.1,39.9-30.138,22.966-78.395ZM76.519,57.2s2.994-10.612,15.17-22.453c0,0-5.608-8.936.6-21.358C92.269,13.3,70.889,25.142,76.519,57.2Zm52.054,5.272s17.292,34.2,5,69.257a103.326,103.326,0,0,1-33.646,46.8A68.207,68.207,0,0,0,128.574,62.362Zm-36.125,92.2C72.542,167.945,54.96,169.6,54.96,169.6c32.171,6.3,60.522-10.769,72.161-40.795a67.9,67.9,0,0,0,3.262-38.27S126.205,132.155,92.448,154.675ZM160.856,25.521c-34.115-13.807-67.291,1.363-82.014,34.763,0,0,22.341-18.9,48.212-13.784,43.989,8.735,62.756,58.087,45.822,102.366C219.658,112.048,207.169,44.243,160.856,25.521Z" transform="translate(-44.759 -664.476)"/></svg>