<?xml version="1.0" encoding="utf-8"?>
<!-- Generator: Adobe Illustrator 23.0.4, SVG Export Plug-In . SVG Version: 6.00 Build 0)  -->
<svg version="1.1" id="レイヤー_1" xmlns="http://www.w3.org/2000/svg" xmlns:xlink="http://www.w3.org/1999/xlink" x="0px"
	 y="0px" viewBox="0 0 512 512" style="enable-background:new 0 0 512 512;" xml:space="preserve">
<style type="text/css">
	.st0{display:none;}
	.st1{display:inline;fill:#FFFFFF;}
	.st2{fill:#4B4B4B;}
	.st3{display:none;fill:#4B4B4B;}
</style>
<g id="_x32_">
	<g id="レイヤー_3" class="st0">
		<circle class="st1" cx="374.9" cy="377.7" r="133.8"/>
	</g>
	<path class="st2" d="M242.2,380.2c0-36.9,15-70.4,39.2-94.6s57.7-39.2,94.6-39.2c23.4,0,45.5,6.1,64.6,16.7l16.6-16.6
		c4.2-4.2,7.5-9.1,9.9-14.4c2.4-5.3,3.7-11,4-16.9l4.1-81.5l4.1-81.5c0.3-6.7-0.7-13.4-3.1-19.6c-2.4-6.2-6-11.8-10.8-16.6
		S455,7.6,448.8,5.2S436,1.7,429.2,2.1l-81.5,4.1l-81.5,4.1c-5.9,0.3-11.6,1.7-16.9,4c-5.3,2.3-10.2,5.7-14.4,9.9L125.5,133.8
		L16,243.3C6.7,252.6,2,264.8,2,277s4.7,24.4,14,33.7L93.3,388l77.3,77.3c9.3,9.3,21.5,14,33.7,14c12.3,0.2,24.5-4.5,33.8-13.8
		l20.7-20.7C248.2,425.6,242.2,403.6,242.2,380.2z M335.3,90.6C343,83,353,79.1,363.1,79.1c10.1,0,20.1,3.8,27.8,11.5
		c7.7,7.7,11.5,17.7,11.5,27.8c0,10.1-3.8,20.1-11.5,27.8c-7.7,7.7-17.7,11.5-27.8,11.5s-20.1-3.9-27.8-11.5
		c-7.7-7.7-11.5-17.7-11.5-27.8C323.8,108.3,327.6,98.3,335.3,90.6z"/>
	<path class="st2" d="M329.8,302.9c-0.9-0.5-2-0.5-2.9,0s-1.4,1.4-1.4,2.5v72.3V450c0,1,0.6,2,1.4,2.5c0.9,0.5,2,0.5,2.9,0
		l121.1-72.3c0.9-0.5,1.4-1.4,1.4-2.4s-0.5-1.9-1.4-2.4L329.8,302.9z"/>
	<path class="st3" d="M239.7,0C107.8,0,0.9,106.9,0.9,238.7s106.9,238.7,238.7,238.7s238.7-106.9,238.7-238.7S371.5,0,239.7,0z
		 M239.7,417.8c-98.7,0-179.1-80.3-179.1-179.1s80.3-179,179.1-179s179,80.3,179,179S338.4,417.8,239.7,417.8z"/>
</g>
</svg>
