<?xml version="1.0" encoding="utf-8"?>
<!-- Generator: Adobe Illustrator 23.0.4, SVG Export Plug-In . SVG Version: 6.00 Build 0)  -->
<svg version="1.1" id="_x32_" xmlns="http://www.w3.org/2000/svg" xmlns:xlink="http://www.w3.org/1999/xlink" x="0px" y="0px"
	 viewBox="0 0 512 512" style="enable-background:new 0 0 512 512;" xml:space="preserve">
<style type="text/css">
	.st0{display:none;}
	.st1{fill:#FFFFFF;}
	.st2{fill:#FFFFFF;}
	.st3{display:none;fill:#FFFFFF;}
</style>
<g id="レイヤー_3" class="st0">
	<circle class="st1" cx="374.9" cy="377.7" r="133.8"/>
</g>
<path class="st2" d="M242.1,380.2c0-37,15-70.4,39.2-94.6c24.2-24.2,57.7-39.2,94.6-39.2c23.5,0,45.5,6,64.7,16.7l16.6-16.6
	c4.2-4.2,7.5-9.1,9.9-14.4c2.4-5.3,3.7-11,4-16.9l4.1-81.5l4.1-81.5c0.3-6.7-0.7-13.4-3.1-19.6s-6-11.8-10.8-16.6
	c-4.8-4.8-10.4-8.4-16.6-10.8c-6.2-2.4-12.8-3.5-19.6-3.1l-81.5,4.1l-81.5,4.1c-5.9,0.3-11.6,1.7-16.9,4c-5.3,2.4-10.2,5.7-14.4,9.9
	L125.5,133.8L16,243.3c-9.3,9.3-14,21.5-14,33.7s4.7,24.4,14,33.7l77.3,77.3l77.3,77.3c9.3,9.3,21.5,14,33.7,14
	c12.2,0,24.4-4.7,33.7-14l20.7-20.7C248.2,425.7,242.1,403.6,242.1,380.2z M335.3,90.6C343,83,353,79.1,363.1,79.1
	c10.1,0,20.1,3.8,27.8,11.5c7.7,7.7,11.5,17.7,11.5,27.8c0,10-3.8,20.1-11.5,27.8c-7.7,7.7-17.7,11.5-27.8,11.5
	c-10.1,0-20.1-3.8-27.8-11.5c-7.7-7.7-11.5-17.7-11.5-27.8C323.8,108.4,327.7,98.3,335.3,90.6z"/>
<path class="st3" d="M329.8,302.9c-0.9-0.5-2-0.5-2.9,0c-0.9,0.5-1.4,1.4-1.4,2.5v72.3v72.3c0,1,0.6,2,1.4,2.5c0.9,0.5,2,0.5,2.9,0
	l121.1-72.3c0.9-0.5,1.4-1.4,1.4-2.4c0-1-0.5-1.9-1.4-2.4L329.8,302.9z"/>
<path class="st3" d="M239.7,0C107.8,0,0.9,106.9,0.9,238.7s106.9,238.7,238.7,238.7s238.7-106.9,238.7-238.7S371.5,0,239.7,0z
	 M239.7,417.8c-98.7,0-179.1-80.3-179.1-179.1S140.9,59.7,239.7,59.7S418.7,140,418.7,238.7S338.4,417.8,239.7,417.8z"/>
<path class="st2" d="M294,345.2l45.7,33.6c2,13.9,14,24.5,28.5,24.2c15.6-0.3,28-13.3,27.6-28.9c0-0.6-0.2-1.2-0.2-1.8l64-79.3
	c4.5-5.2,4.4-12.7-0.2-16.5c-4.6-3.9-11.9-2.8-16.4,2.5l-63.1,70.5c-4-2-8.4-3.1-13.1-3c-5.1,0.1-9.7,1.7-13.8,4.1l-42.9-28.5
	c-5.5-3.9-13.7-1.8-18.1,4.6C287.5,333,288.4,341.4,294,345.2z"/>
<g id="レイヤー_4">
	<path class="st2" d="M473.4,302.1c-1.1-1.5-2.3-2.9-3.5-4.3l-19.4,24.1c13.9,19,20.8,43.1,17.4,68.3c-3.5,25.8-17,47.7-36.2,62.4
		c-19.2,14.7-43.9,22-69.7,18.5c-8.5-1.1-16.5-3.4-24-6.5l9.2-11.1c1.2-1.5,1.7-3.4,1.2-5.1c-0.4-1.7-1.7-3-3.4-3.3l-67.6-14.4
		c-1.9-0.4-4.1,0.4-5.4,2.1c-1.4,1.7-1.8,3.9-1,5.7l26.9,63.7c0.7,1.6,2.1,2.6,3.9,2.8c1.8,0.1,3.6-0.7,4.8-2.2l11.7-14.2
		c12.2,6.2,25.6,10.5,39.8,12.4c34,4.6,66.8-5.1,92.1-24.4c25.3-19.3,43.3-48.4,47.8-82.4C502.4,360.2,492.7,327.4,473.4,302.1z"/>
</g>
</svg>
