<?xml version="1.0" encoding="utf-8"?>
<!-- Generator: Adobe Illustrator 23.0.4, SVG Export Plug-In . SVG Version: 6.00 Build 0)  -->
<svg version="1.1" xmlns="http://www.w3.org/2000/svg" xmlns:xlink="http://www.w3.org/1999/xlink" x="0px" y="0px"
	 viewBox="0 0 512 512" style="enable-background:new 0 0 512 512;" xml:space="preserve">
<style type="text/css">
	.st0{display:none;}
	.st1{fill:#FFFFFF;}
	.st2{fill:#4B4B4B;}
	.st3{display:none;fill:#FFFFFF;}
	.st4{display:none;fill:#4B4B4B;}
</style>
<g id="_x32_">
	<g id="レイヤー_3" class="st0">
		<circle class="st1" cx="374.9" cy="377.7" r="133.8"/>
	</g>
	<path class="st2" d="M238.1,465.5L347.7,356l109.5-109.5c4.2-4.2,7.5-9.1,9.9-14.4c2.4-5.3,3.7-11,4-16.9l4.1-81.5l4.1-81.5
		c0.3-6.7-0.7-13.4-3.1-19.6s-6-11.8-10.8-16.6c-4.8-4.8-10.4-8.4-16.6-10.8s-12.8-3.5-19.6-3.1l-81.5,4.1l-81.5,4.1
		c-5.9,0.3-11.6,1.7-16.9,4s-10.2,5.7-14.4,9.9L125.5,133.8L16,243.3c-9.3,9.3-14,21.5-14,33.7s4.7,24.4,14,33.7l77.3,77.3
		l77.3,77.3c9.3,9.3,21.5,14,33.7,14C216.6,479.5,228.8,474.8,238.1,465.5z M335.3,146.2c-7.7-7.7-11.5-17.7-11.5-27.8
		s3.8-20.1,11.5-27.8C343,83,353,79.1,363.1,79.1s20.1,3.8,27.8,11.5c7.7,7.7,11.5,17.7,11.5,27.8s-3.8,20.1-11.5,27.8
		c-7.7,7.7-17.7,11.5-27.8,11.5S343,153.8,335.3,146.2z"/>
	<path class="st3" d="M509.8,380.2c0,37-15,70.4-39.2,94.6C446.4,499,412.9,514,376,514s-70.4-15-94.6-39.2s-39.2-57.7-39.2-94.6
		s15-70.4,39.2-94.6c24.2-24.2,57.7-39.2,94.6-39.2s70.4,15,94.6,39.2C494.8,309.8,509.8,343.2,509.8,380.2z"/>
	<path class="st4" d="M329.8,302.9c-0.9-0.5-2-0.5-2.9,0c-0.9,0.5-1.4,1.4-1.4,2.5v72.3v72.3c0,1,0.6,2,1.4,2.5c0.9,0.5,2,0.5,2.9,0
		l121.1-72.3c0.9-0.5,1.4-1.4,1.4-2.4c0-1-0.5-1.9-1.4-2.4L329.8,302.9z"/>
	<path class="st4" d="M239.7,0C107.8,0,0.9,106.9,0.9,238.7s106.9,238.7,238.7,238.7s238.7-106.9,238.7-238.7S371.5,0,239.7,0z
		 M239.7,417.8c-98.7,0-179.1-80.3-179.1-179.1S140.9,59.7,239.7,59.7S418.7,140,418.7,238.7S338.4,417.8,239.7,417.8z"/>
</g>
<g id="レイヤー_2" class="st0">
</g>
</svg>
